<?xml version="1.0" encoding="utf-8" standalone="no"?>
<!DOCTYPE svg PUBLIC "-//W3C//DTD SVG 1.1//EN"
  "http://www.w3.org/Graphics/SVG/1.1/DTD/svg11.dtd">
<svg xmlns:xlink="http://www.w3.org/1999/xlink" width="720pt" height="360pt" viewBox="0 0 720 360" xmlns="http://www.w3.org/2000/svg" version="1.1">
 <metadata>
  <rdf:RDF xmlns:dc="http://purl.org/dc/elements/1.1/" xmlns:cc="http://creativecommons.org/ns#" xmlns:rdf="http://www.w3.org/1999/02/22-rdf-syntax-ns#">
   <cc:Work>
    <dc:type rdf:resource="http://purl.org/dc/dcmitype/StillImage"/>
    <dc:date>2024-05-24T14:59:20.046730</dc:date>
    <dc:format>image/svg+xml</dc:format>
    <dc:creator>
     <cc:Agent>
      <dc:title>Matplotlib v3.8.3, https://matplotlib.org/</dc:title>
     </cc:Agent>
    </dc:creator>
   </cc:Work>
  </rdf:RDF>
 </metadata>
 <defs>
  <style type="text/css">*{stroke-linejoin: round; stroke-linecap: butt}</style>
 </defs>
 <g id="figure_1">
  <g id="patch_1">
   <path d="M 0 360
L 720 360
L 720 0
L 0 0
z
" style="fill: #ffffff"/>
  </g>
  <g id="axes_1">
   <g id="patch_2">
    <path d="M 62.57 318.04
L 236.4 318.04
L 236.4 37.968
L 62.57 37.968
z
" style="fill: #ffffff"/>
   </g>
   <g id="matplotlib.axis_1">
    <g id="xtick_1">
     <g id="line2d_1">
      <defs>
       <path id="mb33362085e" d="M 0 0
L 0 3.5
" style="stroke: #000000; stroke-width: 0.8"/>
      </defs>
      <g>
       <use xlink:href="#mb33362085e" x="94.175455" y="318.04" style="stroke: #000000; stroke-width: 0.8"/>
      </g>
     </g>
     <g id="text_1">
      <!-- 20 -->
      <g transform="translate(87.812955 332.638438) scale(0.1 -0.1)">
       <defs>
        <path id="DejaVuSans-32" d="M 1228 531
L 3431 531
L 3431 0
L 469 0
L 469 531
Q 828 903 1448 1529
Q 2069 2156 2228 2338
Q 2531 2678 2651 2914
Q 2772 3150 2772 3378
Q 2772 3750 2511 3984
Q 2250 4219 1831 4219
Q 1534 4219 1204 4116
Q 875 4013 500 3803
L 500 4441
Q 881 4594 1212 4672
Q 1544 4750 1819 4750
Q 2544 4750 2975 4387
Q 3406 4025 3406 3419
Q 3406 3131 3298 2873
Q 3191 2616 2906 2266
Q 2828 2175 2409 1742
Q 1991 1309 1228 531
z
" transform="scale(0.015625)"/>
        <path id="DejaVuSans-30" d="M 2034 4250
Q 1547 4250 1301 3770
Q 1056 3291 1056 2328
Q 1056 1369 1301 889
Q 1547 409 2034 409
Q 2525 409 2770 889
Q 3016 1369 3016 2328
Q 3016 3291 2770 3770
Q 2525 4250 2034 4250
z
M 2034 4750
Q 2819 4750 3233 4129
Q 3647 3509 3647 2328
Q 3647 1150 3233 529
Q 2819 -91 2034 -91
Q 1250 -91 836 529
Q 422 1150 422 2328
Q 422 3509 836 4129
Q 1250 4750 2034 4750
z
" transform="scale(0.015625)"/>
       </defs>
       <use xlink:href="#DejaVuSans-32"/>
       <use xlink:href="#DejaVuSans-30" x="63.623047"/>
      </g>
     </g>
    </g>
    <g id="xtick_2">
     <g id="line2d_2">
      <g>
       <use xlink:href="#mb33362085e" x="133.682273" y="318.04" style="stroke: #000000; stroke-width: 0.8"/>
      </g>
     </g>
     <g id="text_2">
      <!-- 40 -->
      <g transform="translate(127.319773 332.638438) scale(0.1 -0.1)">
       <defs>
        <path id="DejaVuSans-34" d="M 2419 4116
L 825 1625
L 2419 1625
L 2419 4116
z
M 2253 4666
L 3047 4666
L 3047 1625
L 3713 1625
L 3713 1100
L 3047 1100
L 3047 0
L 2419 0
L 2419 1100
L 313 1100
L 313 1709
L 2253 4666
z
" transform="scale(0.015625)"/>
       </defs>
       <use xlink:href="#DejaVuSans-34"/>
       <use xlink:href="#DejaVuSans-30" x="63.623047"/>
      </g>
     </g>
    </g>
    <g id="xtick_3">
     <g id="line2d_3">
      <g>
       <use xlink:href="#mb33362085e" x="173.189091" y="318.04" style="stroke: #000000; stroke-width: 0.8"/>
      </g>
     </g>
     <g id="text_3">
      <!-- 60 -->
      <g transform="translate(166.826591 332.638438) scale(0.1 -0.1)">
       <defs>
        <path id="DejaVuSans-36" d="M 2113 2584
Q 1688 2584 1439 2293
Q 1191 2003 1191 1497
Q 1191 994 1439 701
Q 1688 409 2113 409
Q 2538 409 2786 701
Q 3034 994 3034 1497
Q 3034 2003 2786 2293
Q 2538 2584 2113 2584
z
M 3366 4563
L 3366 3988
Q 3128 4100 2886 4159
Q 2644 4219 2406 4219
Q 1781 4219 1451 3797
Q 1122 3375 1075 2522
Q 1259 2794 1537 2939
Q 1816 3084 2150 3084
Q 2853 3084 3261 2657
Q 3669 2231 3669 1497
Q 3669 778 3244 343
Q 2819 -91 2113 -91
Q 1303 -91 875 529
Q 447 1150 447 2328
Q 447 3434 972 4092
Q 1497 4750 2381 4750
Q 2619 4750 2861 4703
Q 3103 4656 3366 4563
z
" transform="scale(0.015625)"/>
       </defs>
       <use xlink:href="#DejaVuSans-36"/>
       <use xlink:href="#DejaVuSans-30" x="63.623047"/>
      </g>
     </g>
    </g>
    <g id="xtick_4">
     <g id="line2d_4">
      <g>
       <use xlink:href="#mb33362085e" x="212.695909" y="318.04" style="stroke: #000000; stroke-width: 0.8"/>
      </g>
     </g>
     <g id="text_4">
      <!-- 80 -->
      <g transform="translate(206.333409 332.638438) scale(0.1 -0.1)">
       <defs>
        <path id="DejaVuSans-38" d="M 2034 2216
Q 1584 2216 1326 1975
Q 1069 1734 1069 1313
Q 1069 891 1326 650
Q 1584 409 2034 409
Q 2484 409 2743 651
Q 3003 894 3003 1313
Q 3003 1734 2745 1975
Q 2488 2216 2034 2216
z
M 1403 2484
Q 997 2584 770 2862
Q 544 3141 544 3541
Q 544 4100 942 4425
Q 1341 4750 2034 4750
Q 2731 4750 3128 4425
Q 3525 4100 3525 3541
Q 3525 3141 3298 2862
Q 3072 2584 2669 2484
Q 3125 2378 3379 2068
Q 3634 1759 3634 1313
Q 3634 634 3220 271
Q 2806 -91 2034 -91
Q 1263 -91 848 271
Q 434 634 434 1313
Q 434 1759 690 2068
Q 947 2378 1403 2484
z
M 1172 3481
Q 1172 3119 1398 2916
Q 1625 2713 2034 2713
Q 2441 2713 2670 2916
Q 2900 3119 2900 3481
Q 2900 3844 2670 4047
Q 2441 4250 2034 4250
Q 1625 4250 1398 4047
Q 1172 3844 1172 3481
z
" transform="scale(0.015625)"/>
       </defs>
       <use xlink:href="#DejaVuSans-38"/>
       <use xlink:href="#DejaVuSans-30" x="63.623047"/>
      </g>
     </g>
    </g>
    <g id="text_5">
     <!-- age [years] -->
     <g transform="translate(120.919375 346.316563) scale(0.1 -0.1)">
      <defs>
       <path id="DejaVuSans-61" d="M 2194 1759
Q 1497 1759 1228 1600
Q 959 1441 959 1056
Q 959 750 1161 570
Q 1363 391 1709 391
Q 2188 391 2477 730
Q 2766 1069 2766 1631
L 2766 1759
L 2194 1759
z
M 3341 1997
L 3341 0
L 2766 0
L 2766 531
Q 2569 213 2275 61
Q 1981 -91 1556 -91
Q 1019 -91 701 211
Q 384 513 384 1019
Q 384 1609 779 1909
Q 1175 2209 1959 2209
L 2766 2209
L 2766 2266
Q 2766 2663 2505 2880
Q 2244 3097 1772 3097
Q 1472 3097 1187 3025
Q 903 2953 641 2809
L 641 3341
Q 956 3463 1253 3523
Q 1550 3584 1831 3584
Q 2591 3584 2966 3190
Q 3341 2797 3341 1997
z
" transform="scale(0.015625)"/>
       <path id="DejaVuSans-67" d="M 2906 1791
Q 2906 2416 2648 2759
Q 2391 3103 1925 3103
Q 1463 3103 1205 2759
Q 947 2416 947 1791
Q 947 1169 1205 825
Q 1463 481 1925 481
Q 2391 481 2648 825
Q 2906 1169 2906 1791
z
M 3481 434
Q 3481 -459 3084 -895
Q 2688 -1331 1869 -1331
Q 1566 -1331 1297 -1286
Q 1028 -1241 775 -1147
L 775 -588
Q 1028 -725 1275 -790
Q 1522 -856 1778 -856
Q 2344 -856 2625 -561
Q 2906 -266 2906 331
L 2906 616
Q 2728 306 2450 153
Q 2172 0 1784 0
Q 1141 0 747 490
Q 353 981 353 1791
Q 353 2603 747 3093
Q 1141 3584 1784 3584
Q 2172 3584 2450 3431
Q 2728 3278 2906 2969
L 2906 3500
L 3481 3500
L 3481 434
z
" transform="scale(0.015625)"/>
       <path id="DejaVuSans-65" d="M 3597 1894
L 3597 1613
L 953 1613
Q 991 1019 1311 708
Q 1631 397 2203 397
Q 2534 397 2845 478
Q 3156 559 3463 722
L 3463 178
Q 3153 47 2828 -22
Q 2503 -91 2169 -91
Q 1331 -91 842 396
Q 353 884 353 1716
Q 353 2575 817 3079
Q 1281 3584 2069 3584
Q 2775 3584 3186 3129
Q 3597 2675 3597 1894
z
M 3022 2063
Q 3016 2534 2758 2815
Q 2500 3097 2075 3097
Q 1594 3097 1305 2825
Q 1016 2553 972 2059
L 3022 2063
z
" transform="scale(0.015625)"/>
       <path id="DejaVuSans-20" transform="scale(0.015625)"/>
       <path id="DejaVuSans-5b" d="M 550 4863
L 1875 4863
L 1875 4416
L 1125 4416
L 1125 -397
L 1875 -397
L 1875 -844
L 550 -844
L 550 4863
z
" transform="scale(0.015625)"/>
       <path id="DejaVuSans-79" d="M 2059 -325
Q 1816 -950 1584 -1140
Q 1353 -1331 966 -1331
L 506 -1331
L 506 -850
L 844 -850
Q 1081 -850 1212 -737
Q 1344 -625 1503 -206
L 1606 56
L 191 3500
L 800 3500
L 1894 763
L 2988 3500
L 3597 3500
L 2059 -325
z
" transform="scale(0.015625)"/>
       <path id="DejaVuSans-72" d="M 2631 2963
Q 2534 3019 2420 3045
Q 2306 3072 2169 3072
Q 1681 3072 1420 2755
Q 1159 2438 1159 1844
L 1159 0
L 581 0
L 581 3500
L 1159 3500
L 1159 2956
Q 1341 3275 1631 3429
Q 1922 3584 2338 3584
Q 2397 3584 2469 3576
Q 2541 3569 2628 3553
L 2631 2963
z
" transform="scale(0.015625)"/>
       <path id="DejaVuSans-73" d="M 2834 3397
L 2834 2853
Q 2591 2978 2328 3040
Q 2066 3103 1784 3103
Q 1356 3103 1142 2972
Q 928 2841 928 2578
Q 928 2378 1081 2264
Q 1234 2150 1697 2047
L 1894 2003
Q 2506 1872 2764 1633
Q 3022 1394 3022 966
Q 3022 478 2636 193
Q 2250 -91 1575 -91
Q 1294 -91 989 -36
Q 684 19 347 128
L 347 722
Q 666 556 975 473
Q 1284 391 1588 391
Q 1994 391 2212 530
Q 2431 669 2431 922
Q 2431 1156 2273 1281
Q 2116 1406 1581 1522
L 1381 1569
Q 847 1681 609 1914
Q 372 2147 372 2553
Q 372 3047 722 3315
Q 1072 3584 1716 3584
Q 2034 3584 2315 3537
Q 2597 3491 2834 3397
z
" transform="scale(0.015625)"/>
       <path id="DejaVuSans-5d" d="M 1947 4863
L 1947 -844
L 622 -844
L 622 -397
L 1369 -397
L 1369 4416
L 622 4416
L 622 4863
L 1947 4863
z
" transform="scale(0.015625)"/>
      </defs>
      <use xlink:href="#DejaVuSans-61"/>
      <use xlink:href="#DejaVuSans-67" x="61.279297"/>
      <use xlink:href="#DejaVuSans-65" x="124.755859"/>
      <use xlink:href="#DejaVuSans-20" x="186.279297"/>
      <use xlink:href="#DejaVuSans-5b" x="218.066406"/>
      <use xlink:href="#DejaVuSans-79" x="257.080078"/>
      <use xlink:href="#DejaVuSans-65" x="316.259766"/>
      <use xlink:href="#DejaVuSans-61" x="377.783203"/>
      <use xlink:href="#DejaVuSans-72" x="439.0625"/>
      <use xlink:href="#DejaVuSans-73" x="480.175781"/>
      <use xlink:href="#DejaVuSans-5d" x="532.275391"/>
     </g>
    </g>
   </g>
   <g id="matplotlib.axis_2">
    <g id="ytick_1">
     <g id="line2d_5">
      <defs>
       <path id="m4b6bf69999" d="M 0 0
L -3.5 0
" style="stroke: #000000; stroke-width: 0.8"/>
      </defs>
      <g>
       <use xlink:href="#m4b6bf69999" x="62.57" y="318.04" style="stroke: #000000; stroke-width: 0.8"/>
      </g>
     </g>
     <g id="text_6">
      <!-- −1.00 -->
      <g transform="translate(24.924688 321.839219) scale(0.1 -0.1)">
       <defs>
        <path id="DejaVuSans-2212" d="M 678 2272
L 4684 2272
L 4684 1741
L 678 1741
L 678 2272
z
" transform="scale(0.015625)"/>
        <path id="DejaVuSans-31" d="M 794 531
L 1825 531
L 1825 4091
L 703 3866
L 703 4441
L 1819 4666
L 2450 4666
L 2450 531
L 3481 531
L 3481 0
L 794 0
L 794 531
z
" transform="scale(0.015625)"/>
        <path id="DejaVuSans-2e" d="M 684 794
L 1344 794
L 1344 0
L 684 0
L 684 794
z
" transform="scale(0.015625)"/>
       </defs>
       <use xlink:href="#DejaVuSans-2212"/>
       <use xlink:href="#DejaVuSans-31" x="83.789062"/>
       <use xlink:href="#DejaVuSans-2e" x="147.412109"/>
       <use xlink:href="#DejaVuSans-30" x="179.199219"/>
       <use xlink:href="#DejaVuSans-30" x="242.822266"/>
      </g>
     </g>
    </g>
    <g id="ytick_2">
     <g id="line2d_6">
      <g>
       <use xlink:href="#m4b6bf69999" x="62.57" y="283.031" style="stroke: #000000; stroke-width: 0.8"/>
      </g>
     </g>
     <g id="text_7">
      <!-- −0.75 -->
      <g transform="translate(24.924688 286.830219) scale(0.1 -0.1)">
       <defs>
        <path id="DejaVuSans-37" d="M 525 4666
L 3525 4666
L 3525 4397
L 1831 0
L 1172 0
L 2766 4134
L 525 4134
L 525 4666
z
" transform="scale(0.015625)"/>
        <path id="DejaVuSans-35" d="M 691 4666
L 3169 4666
L 3169 4134
L 1269 4134
L 1269 2991
Q 1406 3038 1543 3061
Q 1681 3084 1819 3084
Q 2600 3084 3056 2656
Q 3513 2228 3513 1497
Q 3513 744 3044 326
Q 2575 -91 1722 -91
Q 1428 -91 1123 -41
Q 819 9 494 109
L 494 744
Q 775 591 1075 516
Q 1375 441 1709 441
Q 2250 441 2565 725
Q 2881 1009 2881 1497
Q 2881 1984 2565 2268
Q 2250 2553 1709 2553
Q 1456 2553 1204 2497
Q 953 2441 691 2322
L 691 4666
z
" transform="scale(0.015625)"/>
       </defs>
       <use xlink:href="#DejaVuSans-2212"/>
       <use xlink:href="#DejaVuSans-30" x="83.789062"/>
       <use xlink:href="#DejaVuSans-2e" x="147.412109"/>
       <use xlink:href="#DejaVuSans-37" x="179.199219"/>
       <use xlink:href="#DejaVuSans-35" x="242.822266"/>
      </g>
     </g>
    </g>
    <g id="ytick_3">
     <g id="line2d_7">
      <g>
       <use xlink:href="#m4b6bf69999" x="62.57" y="248.022" style="stroke: #000000; stroke-width: 0.8"/>
      </g>
     </g>
     <g id="text_8">
      <!-- −0.50 -->
      <g transform="translate(24.924688 251.821219) scale(0.1 -0.1)">
       <use xlink:href="#DejaVuSans-2212"/>
       <use xlink:href="#DejaVuSans-30" x="83.789062"/>
       <use xlink:href="#DejaVuSans-2e" x="147.412109"/>
       <use xlink:href="#DejaVuSans-35" x="179.199219"/>
       <use xlink:href="#DejaVuSans-30" x="242.822266"/>
      </g>
     </g>
    </g>
    <g id="ytick_4">
     <g id="line2d_8">
      <g>
       <use xlink:href="#m4b6bf69999" x="62.57" y="213.013" style="stroke: #000000; stroke-width: 0.8"/>
      </g>
     </g>
     <g id="text_9">
      <!-- −0.25 -->
      <g transform="translate(24.924688 216.812219) scale(0.1 -0.1)">
       <use xlink:href="#DejaVuSans-2212"/>
       <use xlink:href="#DejaVuSans-30" x="83.789062"/>
       <use xlink:href="#DejaVuSans-2e" x="147.412109"/>
       <use xlink:href="#DejaVuSans-32" x="179.199219"/>
       <use xlink:href="#DejaVuSans-35" x="242.822266"/>
      </g>
     </g>
    </g>
    <g id="ytick_5">
     <g id="line2d_9">
      <g>
       <use xlink:href="#m4b6bf69999" x="62.57" y="178.004" style="stroke: #000000; stroke-width: 0.8"/>
      </g>
     </g>
     <g id="text_10">
      <!-- 0.00 -->
      <g transform="translate(33.304375 181.803219) scale(0.1 -0.1)">
       <use xlink:href="#DejaVuSans-30"/>
       <use xlink:href="#DejaVuSans-2e" x="63.623047"/>
       <use xlink:href="#DejaVuSans-30" x="95.410156"/>
       <use xlink:href="#DejaVuSans-30" x="159.033203"/>
      </g>
     </g>
    </g>
    <g id="ytick_6">
     <g id="line2d_10">
      <g>
       <use xlink:href="#m4b6bf69999" x="62.57" y="142.995" style="stroke: #000000; stroke-width: 0.8"/>
      </g>
     </g>
     <g id="text_11">
      <!-- 0.25 -->
      <g transform="translate(33.304375 146.794219) scale(0.1 -0.1)">
       <use xlink:href="#DejaVuSans-30"/>
       <use xlink:href="#DejaVuSans-2e" x="63.623047"/>
       <use xlink:href="#DejaVuSans-32" x="95.410156"/>
       <use xlink:href="#DejaVuSans-35" x="159.033203"/>
      </g>
     </g>
    </g>
    <g id="ytick_7">
     <g id="line2d_11">
      <g>
       <use xlink:href="#m4b6bf69999" x="62.57" y="107.986" style="stroke: #000000; stroke-width: 0.8"/>
      </g>
     </g>
     <g id="text_12">
      <!-- 0.50 -->
      <g transform="translate(33.304375 111.785219) scale(0.1 -0.1)">
       <use xlink:href="#DejaVuSans-30"/>
       <use xlink:href="#DejaVuSans-2e" x="63.623047"/>
       <use xlink:href="#DejaVuSans-35" x="95.410156"/>
       <use xlink:href="#DejaVuSans-30" x="159.033203"/>
      </g>
     </g>
    </g>
    <g id="ytick_8">
     <g id="line2d_12">
      <g>
       <use xlink:href="#m4b6bf69999" x="62.57" y="72.977" style="stroke: #000000; stroke-width: 0.8"/>
      </g>
     </g>
     <g id="text_13">
      <!-- 0.75 -->
      <g transform="translate(33.304375 76.776219) scale(0.1 -0.1)">
       <use xlink:href="#DejaVuSans-30"/>
       <use xlink:href="#DejaVuSans-2e" x="63.623047"/>
       <use xlink:href="#DejaVuSans-37" x="95.410156"/>
       <use xlink:href="#DejaVuSans-35" x="159.033203"/>
      </g>
     </g>
    </g>
    <g id="ytick_9">
     <g id="line2d_13">
      <g>
       <use xlink:href="#m4b6bf69999" x="62.57" y="37.968" style="stroke: #000000; stroke-width: 0.8"/>
      </g>
     </g>
     <g id="text_14">
      <!-- 1.00 -->
      <g transform="translate(33.304375 41.767219) scale(0.1 -0.1)">
       <use xlink:href="#DejaVuSans-31"/>
       <use xlink:href="#DejaVuSans-2e" x="63.623047"/>
       <use xlink:href="#DejaVuSans-30" x="95.410156"/>
       <use xlink:href="#DejaVuSans-30" x="159.033203"/>
      </g>
     </g>
    </g>
    <g id="text_15">
     <!-- CATE -->
     <g transform="translate(18.845 190.7415) rotate(-90) scale(0.1 -0.1)">
      <defs>
       <path id="DejaVuSans-43" d="M 4122 4306
L 4122 3641
Q 3803 3938 3442 4084
Q 3081 4231 2675 4231
Q 1875 4231 1450 3742
Q 1025 3253 1025 2328
Q 1025 1406 1450 917
Q 1875 428 2675 428
Q 3081 428 3442 575
Q 3803 722 4122 1019
L 4122 359
Q 3791 134 3420 21
Q 3050 -91 2638 -91
Q 1578 -91 968 557
Q 359 1206 359 2328
Q 359 3453 968 4101
Q 1578 4750 2638 4750
Q 3056 4750 3426 4639
Q 3797 4528 4122 4306
z
" transform="scale(0.015625)"/>
       <path id="DejaVuSans-41" d="M 2188 4044
L 1331 1722
L 3047 1722
L 2188 4044
z
M 1831 4666
L 2547 4666
L 4325 0
L 3669 0
L 3244 1197
L 1141 1197
L 716 0
L 50 0
L 1831 4666
z
" transform="scale(0.015625)"/>
       <path id="DejaVuSans-54" d="M -19 4666
L 3928 4666
L 3928 4134
L 2272 4134
L 2272 0
L 1638 0
L 1638 4134
L -19 4134
L -19 4666
z
" transform="scale(0.015625)"/>
       <path id="DejaVuSans-45" d="M 628 4666
L 3578 4666
L 3578 4134
L 1259 4134
L 1259 2753
L 3481 2753
L 3481 2222
L 1259 2222
L 1259 531
L 3634 531
L 3634 0
L 628 0
L 628 4666
z
" transform="scale(0.015625)"/>
      </defs>
      <use xlink:href="#DejaVuSans-43"/>
      <use xlink:href="#DejaVuSans-41" x="69.824219"/>
      <use xlink:href="#DejaVuSans-54" x="130.482422"/>
      <use xlink:href="#DejaVuSans-45" x="191.566406"/>
     </g>
    </g>
   </g>
   <g id="line2d_14">
    <path d="M 62.57 178.004
L 236.4 178.004
" clip-path="url(#p7ac87b9c74)" style="fill: none; stroke: #ffa500; stroke-width: 1.5; stroke-linecap: square"/>
   </g>
   <g id="line2d_15">
    <path d="M 70.471364 163.730054
L 72.067599 165.973573
L 73.663834 163.361421
L 75.260069 164.445624
L 76.856304 165.179205
L 78.452539 164.434384
L 80.048774 163.204027
L 81.645009 162.941951
L 83.241244 164.000006
L 84.837479 165.653031
L 86.433714 165.050677
L 88.029949 162.409935
L 89.626185 163.677483
L 91.22242 166.52644
L 92.818655 163.533971
L 94.41489 166.67968
L 96.011125 163.039481
L 97.60736 163.103701
L 99.203595 162.633554
L 100.79983 163.477779
L 102.396065 164.005294
L 103.9923 162.837388
L 105.588535 163.014615
L 107.18477 163.920611
L 108.781006 166.901602
L 110.377241 165.902445
L 111.973476 163.66367
L 113.569711 160.071965
L 115.165946 162.128141
L 116.762181 164.357515
L 118.358416 164.309613
L 119.954651 164.547552
L 121.550886 165.476831
L 123.147121 165.971363
L 124.743356 162.450051
L 126.339591 162.709491
L 127.935826 165.021801
L 129.532062 164.399558
L 131.128297 165.351273
L 132.724532 165.830146
L 134.320767 163.119376
L 135.917002 164.174812
L 137.513237 163.967545
L 139.109472 163.842581
L 140.705707 165.924792
L 142.301942 164.732932
L 143.898177 163.221913
L 145.494412 164.560229
L 147.090647 163.857516
L 148.686882 165.710289
L 150.283118 165.414827
L 151.879353 164.239766
L 153.475588 165.351905
L 155.071823 163.864197
L 156.668058 165.282782
L 158.264293 165.105626
L 159.860528 163.989345
L 161.456763 164.313688
L 163.052998 163.855579
L 164.649233 164.769755
L 166.245468 163.999809
L 167.841703 165.59453
L 169.437938 163.87841
L 171.034174 165.73516
L 172.630409 164.637399
L 174.226644 165.184154
L 175.822879 162.502255
L 177.419114 166.130204
L 179.015349 165.028739
L 180.611584 162.201045
L 182.207819 165.114336
L 183.804054 164.883274
L 185.400289 163.237122
L 186.996524 165.727827
L 188.592759 165.013528
L 190.188994 162.479041
L 191.78523 163.872868
L 193.381465 162.701924
L 194.9777 163.921218
L 196.573935 163.17252
L 198.17017 162.931579
L 199.766405 162.739054
L 201.36264 165.083093
L 202.958875 162.015715
L 204.55511 162.885292
L 206.151345 164.78608
L 207.74758 163.246052
L 209.343815 164.379576
L 210.940051 164.7029
L 212.536286 164.079917
L 214.132521 161.660202
L 215.728756 163.177089
L 217.324991 164.230443
L 218.921226 163.920432
L 220.517461 164.75346
L 222.113696 165.896307
L 223.709931 163.08365
L 225.306166 166.946313
L 226.902401 162.398242
L 228.498636 163.043862
" clip-path="url(#p7ac87b9c74)" style="fill: none; stroke: #1f77b4; stroke-width: 1.5; stroke-linecap: square"/>
   </g>
   <g id="patch_3">
    <path d="M 62.57 318.04
L 62.57 37.968
" style="fill: none; stroke: #000000; stroke-width: 0.8; stroke-linejoin: miter; stroke-linecap: square"/>
   </g>
   <g id="patch_4">
    <path d="M 236.4 318.04
L 236.4 37.968
" style="fill: none; stroke: #000000; stroke-width: 0.8; stroke-linejoin: miter; stroke-linecap: square"/>
   </g>
   <g id="patch_5">
    <path d="M 62.57 318.04
L 236.4 318.04
" style="fill: none; stroke: #000000; stroke-width: 0.8; stroke-linejoin: miter; stroke-linecap: square"/>
   </g>
   <g id="patch_6">
    <path d="M 62.57 37.968
L 236.4 37.968
" style="fill: none; stroke: #000000; stroke-width: 0.8; stroke-linejoin: miter; stroke-linecap: square"/>
   </g>
   <g id="text_16">
    <!-- Little heterogeneity in age -->
    <g transform="translate(69.937188 31.968) scale(0.12 -0.12)">
     <defs>
      <path id="DejaVuSans-4c" d="M 628 4666
L 1259 4666
L 1259 531
L 3531 531
L 3531 0
L 628 0
L 628 4666
z
" transform="scale(0.015625)"/>
      <path id="DejaVuSans-69" d="M 603 3500
L 1178 3500
L 1178 0
L 603 0
L 603 3500
z
M 603 4863
L 1178 4863
L 1178 4134
L 603 4134
L 603 4863
z
" transform="scale(0.015625)"/>
      <path id="DejaVuSans-74" d="M 1172 4494
L 1172 3500
L 2356 3500
L 2356 3053
L 1172 3053
L 1172 1153
Q 1172 725 1289 603
Q 1406 481 1766 481
L 2356 481
L 2356 0
L 1766 0
Q 1100 0 847 248
Q 594 497 594 1153
L 594 3053
L 172 3053
L 172 3500
L 594 3500
L 594 4494
L 1172 4494
z
" transform="scale(0.015625)"/>
      <path id="DejaVuSans-6c" d="M 603 4863
L 1178 4863
L 1178 0
L 603 0
L 603 4863
z
" transform="scale(0.015625)"/>
      <path id="DejaVuSans-68" d="M 3513 2113
L 3513 0
L 2938 0
L 2938 2094
Q 2938 2591 2744 2837
Q 2550 3084 2163 3084
Q 1697 3084 1428 2787
Q 1159 2491 1159 1978
L 1159 0
L 581 0
L 581 4863
L 1159 4863
L 1159 2956
Q 1366 3272 1645 3428
Q 1925 3584 2291 3584
Q 2894 3584 3203 3211
Q 3513 2838 3513 2113
z
" transform="scale(0.015625)"/>
      <path id="DejaVuSans-6f" d="M 1959 3097
Q 1497 3097 1228 2736
Q 959 2375 959 1747
Q 959 1119 1226 758
Q 1494 397 1959 397
Q 2419 397 2687 759
Q 2956 1122 2956 1747
Q 2956 2369 2687 2733
Q 2419 3097 1959 3097
z
M 1959 3584
Q 2709 3584 3137 3096
Q 3566 2609 3566 1747
Q 3566 888 3137 398
Q 2709 -91 1959 -91
Q 1206 -91 779 398
Q 353 888 353 1747
Q 353 2609 779 3096
Q 1206 3584 1959 3584
z
" transform="scale(0.015625)"/>
      <path id="DejaVuSans-6e" d="M 3513 2113
L 3513 0
L 2938 0
L 2938 2094
Q 2938 2591 2744 2837
Q 2550 3084 2163 3084
Q 1697 3084 1428 2787
Q 1159 2491 1159 1978
L 1159 0
L 581 0
L 581 3500
L 1159 3500
L 1159 2956
Q 1366 3272 1645 3428
Q 1925 3584 2291 3584
Q 2894 3584 3203 3211
Q 3513 2838 3513 2113
z
" transform="scale(0.015625)"/>
     </defs>
     <use xlink:href="#DejaVuSans-4c"/>
     <use xlink:href="#DejaVuSans-69" x="55.712891"/>
     <use xlink:href="#DejaVuSans-74" x="83.496094"/>
     <use xlink:href="#DejaVuSans-74" x="122.705078"/>
     <use xlink:href="#DejaVuSans-6c" x="161.914062"/>
     <use xlink:href="#DejaVuSans-65" x="189.697266"/>
     <use xlink:href="#DejaVuSans-20" x="251.220703"/>
     <use xlink:href="#DejaVuSans-68" x="283.007812"/>
     <use xlink:href="#DejaVuSans-65" x="346.386719"/>
     <use xlink:href="#DejaVuSans-74" x="407.910156"/>
     <use xlink:href="#DejaVuSans-65" x="447.119141"/>
     <use xlink:href="#DejaVuSans-72" x="508.642578"/>
     <use xlink:href="#DejaVuSans-6f" x="547.505859"/>
     <use xlink:href="#DejaVuSans-67" x="608.6875"/>
     <use xlink:href="#DejaVuSans-65" x="672.164062"/>
     <use xlink:href="#DejaVuSans-6e" x="733.6875"/>
     <use xlink:href="#DejaVuSans-65" x="797.066406"/>
     <use xlink:href="#DejaVuSans-69" x="858.589844"/>
     <use xlink:href="#DejaVuSans-74" x="886.373047"/>
     <use xlink:href="#DejaVuSans-79" x="925.582031"/>
     <use xlink:href="#DejaVuSans-20" x="984.761719"/>
     <use xlink:href="#DejaVuSans-69" x="1016.548828"/>
     <use xlink:href="#DejaVuSans-6e" x="1044.332031"/>
     <use xlink:href="#DejaVuSans-20" x="1107.710938"/>
     <use xlink:href="#DejaVuSans-61" x="1139.498047"/>
     <use xlink:href="#DejaVuSans-67" x="1200.777344"/>
     <use xlink:href="#DejaVuSans-65" x="1264.253906"/>
    </g>
   </g>
  </g>
  <g id="axes_2">
   <g id="patch_7">
    <path d="M 298.97 318.04
L 472.8 318.04
L 472.8 37.968
L 298.97 37.968
z
" style="fill: #ffffff"/>
   </g>
   <g id="matplotlib.axis_3">
    <g id="xtick_5">
     <g id="line2d_16">
      <g>
       <use xlink:href="#mb33362085e" x="330.575455" y="318.04" style="stroke: #000000; stroke-width: 0.8"/>
      </g>
     </g>
     <g id="text_17">
      <!-- 20 -->
      <g transform="translate(324.212955 332.638438) scale(0.1 -0.1)">
       <use xlink:href="#DejaVuSans-32"/>
       <use xlink:href="#DejaVuSans-30" x="63.623047"/>
      </g>
     </g>
    </g>
    <g id="xtick_6">
     <g id="line2d_17">
      <g>
       <use xlink:href="#mb33362085e" x="370.082273" y="318.04" style="stroke: #000000; stroke-width: 0.8"/>
      </g>
     </g>
     <g id="text_18">
      <!-- 40 -->
      <g transform="translate(363.719773 332.638438) scale(0.1 -0.1)">
       <use xlink:href="#DejaVuSans-34"/>
       <use xlink:href="#DejaVuSans-30" x="63.623047"/>
      </g>
     </g>
    </g>
    <g id="xtick_7">
     <g id="line2d_18">
      <g>
       <use xlink:href="#mb33362085e" x="409.589091" y="318.04" style="stroke: #000000; stroke-width: 0.8"/>
      </g>
     </g>
     <g id="text_19">
      <!-- 60 -->
      <g transform="translate(403.226591 332.638438) scale(0.1 -0.1)">
       <use xlink:href="#DejaVuSans-36"/>
       <use xlink:href="#DejaVuSans-30" x="63.623047"/>
      </g>
     </g>
    </g>
    <g id="xtick_8">
     <g id="line2d_19">
      <g>
       <use xlink:href="#mb33362085e" x="449.095909" y="318.04" style="stroke: #000000; stroke-width: 0.8"/>
      </g>
     </g>
     <g id="text_20">
      <!-- 80 -->
      <g transform="translate(442.733409 332.638438) scale(0.1 -0.1)">
       <use xlink:href="#DejaVuSans-38"/>
       <use xlink:href="#DejaVuSans-30" x="63.623047"/>
      </g>
     </g>
    </g>
    <g id="text_21">
     <!-- age [years] -->
     <g transform="translate(357.319375 346.316563) scale(0.1 -0.1)">
      <use xlink:href="#DejaVuSans-61"/>
      <use xlink:href="#DejaVuSans-67" x="61.279297"/>
      <use xlink:href="#DejaVuSans-65" x="124.755859"/>
      <use xlink:href="#DejaVuSans-20" x="186.279297"/>
      <use xlink:href="#DejaVuSans-5b" x="218.066406"/>
      <use xlink:href="#DejaVuSans-79" x="257.080078"/>
      <use xlink:href="#DejaVuSans-65" x="316.259766"/>
      <use xlink:href="#DejaVuSans-61" x="377.783203"/>
      <use xlink:href="#DejaVuSans-72" x="439.0625"/>
      <use xlink:href="#DejaVuSans-73" x="480.175781"/>
      <use xlink:href="#DejaVuSans-5d" x="532.275391"/>
     </g>
    </g>
   </g>
   <g id="matplotlib.axis_4">
    <g id="ytick_10">
     <g id="line2d_20">
      <g>
       <use xlink:href="#m4b6bf69999" x="298.97" y="318.04" style="stroke: #000000; stroke-width: 0.8"/>
      </g>
     </g>
     <g id="text_22">
      <!-- −1.00 -->
      <g transform="translate(261.324687 321.839219) scale(0.1 -0.1)">
       <use xlink:href="#DejaVuSans-2212"/>
       <use xlink:href="#DejaVuSans-31" x="83.789062"/>
       <use xlink:href="#DejaVuSans-2e" x="147.412109"/>
       <use xlink:href="#DejaVuSans-30" x="179.199219"/>
       <use xlink:href="#DejaVuSans-30" x="242.822266"/>
      </g>
     </g>
    </g>
    <g id="ytick_11">
     <g id="line2d_21">
      <g>
       <use xlink:href="#m4b6bf69999" x="298.97" y="283.031" style="stroke: #000000; stroke-width: 0.8"/>
      </g>
     </g>
     <g id="text_23">
      <!-- −0.75 -->
      <g transform="translate(261.324687 286.830219) scale(0.1 -0.1)">
       <use xlink:href="#DejaVuSans-2212"/>
       <use xlink:href="#DejaVuSans-30" x="83.789062"/>
       <use xlink:href="#DejaVuSans-2e" x="147.412109"/>
       <use xlink:href="#DejaVuSans-37" x="179.199219"/>
       <use xlink:href="#DejaVuSans-35" x="242.822266"/>
      </g>
     </g>
    </g>
    <g id="ytick_12">
     <g id="line2d_22">
      <g>
       <use xlink:href="#m4b6bf69999" x="298.97" y="248.022" style="stroke: #000000; stroke-width: 0.8"/>
      </g>
     </g>
     <g id="text_24">
      <!-- −0.50 -->
      <g transform="translate(261.324687 251.821219) scale(0.1 -0.1)">
       <use xlink:href="#DejaVuSans-2212"/>
       <use xlink:href="#DejaVuSans-30" x="83.789062"/>
       <use xlink:href="#DejaVuSans-2e" x="147.412109"/>
       <use xlink:href="#DejaVuSans-35" x="179.199219"/>
       <use xlink:href="#DejaVuSans-30" x="242.822266"/>
      </g>
     </g>
    </g>
    <g id="ytick_13">
     <g id="line2d_23">
      <g>
       <use xlink:href="#m4b6bf69999" x="298.97" y="213.013" style="stroke: #000000; stroke-width: 0.8"/>
      </g>
     </g>
     <g id="text_25">
      <!-- −0.25 -->
      <g transform="translate(261.324687 216.812219) scale(0.1 -0.1)">
       <use xlink:href="#DejaVuSans-2212"/>
       <use xlink:href="#DejaVuSans-30" x="83.789062"/>
       <use xlink:href="#DejaVuSans-2e" x="147.412109"/>
       <use xlink:href="#DejaVuSans-32" x="179.199219"/>
       <use xlink:href="#DejaVuSans-35" x="242.822266"/>
      </g>
     </g>
    </g>
    <g id="ytick_14">
     <g id="line2d_24">
      <g>
       <use xlink:href="#m4b6bf69999" x="298.97" y="178.004" style="stroke: #000000; stroke-width: 0.8"/>
      </g>
     </g>
     <g id="text_26">
      <!-- 0.00 -->
      <g transform="translate(269.704375 181.803219) scale(0.1 -0.1)">
       <use xlink:href="#DejaVuSans-30"/>
       <use xlink:href="#DejaVuSans-2e" x="63.623047"/>
       <use xlink:href="#DejaVuSans-30" x="95.410156"/>
       <use xlink:href="#DejaVuSans-30" x="159.033203"/>
      </g>
     </g>
    </g>
    <g id="ytick_15">
     <g id="line2d_25">
      <g>
       <use xlink:href="#m4b6bf69999" x="298.97" y="142.995" style="stroke: #000000; stroke-width: 0.8"/>
      </g>
     </g>
     <g id="text_27">
      <!-- 0.25 -->
      <g transform="translate(269.704375 146.794219) scale(0.1 -0.1)">
       <use xlink:href="#DejaVuSans-30"/>
       <use xlink:href="#DejaVuSans-2e" x="63.623047"/>
       <use xlink:href="#DejaVuSans-32" x="95.410156"/>
       <use xlink:href="#DejaVuSans-35" x="159.033203"/>
      </g>
     </g>
    </g>
    <g id="ytick_16">
     <g id="line2d_26">
      <g>
       <use xlink:href="#m4b6bf69999" x="298.97" y="107.986" style="stroke: #000000; stroke-width: 0.8"/>
      </g>
     </g>
     <g id="text_28">
      <!-- 0.50 -->
      <g transform="translate(269.704375 111.785219) scale(0.1 -0.1)">
       <use xlink:href="#DejaVuSans-30"/>
       <use xlink:href="#DejaVuSans-2e" x="63.623047"/>
       <use xlink:href="#DejaVuSans-35" x="95.410156"/>
       <use xlink:href="#DejaVuSans-30" x="159.033203"/>
      </g>
     </g>
    </g>
    <g id="ytick_17">
     <g id="line2d_27">
      <g>
       <use xlink:href="#m4b6bf69999" x="298.97" y="72.977" style="stroke: #000000; stroke-width: 0.8"/>
      </g>
     </g>
     <g id="text_29">
      <!-- 0.75 -->
      <g transform="translate(269.704375 76.776219) scale(0.1 -0.1)">
       <use xlink:href="#DejaVuSans-30"/>
       <use xlink:href="#DejaVuSans-2e" x="63.623047"/>
       <use xlink:href="#DejaVuSans-37" x="95.410156"/>
       <use xlink:href="#DejaVuSans-35" x="159.033203"/>
      </g>
     </g>
    </g>
    <g id="ytick_18">
     <g id="line2d_28">
      <g>
       <use xlink:href="#m4b6bf69999" x="298.97" y="37.968" style="stroke: #000000; stroke-width: 0.8"/>
      </g>
     </g>
     <g id="text_30">
      <!-- 1.00 -->
      <g transform="translate(269.704375 41.767219) scale(0.1 -0.1)">
       <use xlink:href="#DejaVuSans-31"/>
       <use xlink:href="#DejaVuSans-2e" x="63.623047"/>
       <use xlink:href="#DejaVuSans-30" x="95.410156"/>
       <use xlink:href="#DejaVuSans-30" x="159.033203"/>
      </g>
     </g>
    </g>
    <g id="text_31">
     <!-- CATE -->
     <g transform="translate(255.245 190.7415) rotate(-90) scale(0.1 -0.1)">
      <use xlink:href="#DejaVuSans-43"/>
      <use xlink:href="#DejaVuSans-41" x="69.824219"/>
      <use xlink:href="#DejaVuSans-54" x="130.482422"/>
      <use xlink:href="#DejaVuSans-45" x="191.566406"/>
     </g>
    </g>
   </g>
   <g id="line2d_29">
    <path d="M 298.97 178.004
L 472.8 178.004
" clip-path="url(#p0e2a1d0aef)" style="fill: none; stroke: #ffa500; stroke-width: 1.5; stroke-linecap: square"/>
   </g>
   <g id="line2d_30">
    <path d="M 306.871364 175.499554
L 308.467599 177.295194
L 310.063834 176.558733
L 311.660069 174.34919
L 313.256304 177.12246
L 314.852539 175.430962
L 316.448774 177.156888
L 318.045009 175.54393
L 319.641244 178.42688
L 321.237479 173.610527
L 322.833714 178.112809
L 324.429949 176.596022
L 326.026185 175.699839
L 327.62242 173.696538
L 329.218655 175.106255
L 330.81489 173.845226
L 332.411125 172.899173
L 334.00736 170.920523
L 335.603595 170.867554
L 337.19983 172.256387
L 338.796065 172.313587
L 340.3923 171.945716
L 341.988535 168.117409
L 343.58477 171.019233
L 345.181006 171.373503
L 346.777241 167.71984
L 348.373476 169.484373
L 349.969711 168.245087
L 351.565946 167.976688
L 353.162181 165.124182
L 354.758416 166.786932
L 356.354651 163.2443
L 357.950886 163.665754
L 359.547121 161.769485
L 361.143356 160.865045
L 362.739591 159.677477
L 364.335826 161.15698
L 365.932062 160.210513
L 367.528297 159.010319
L 369.124532 159.088196
L 370.720767 158.414968
L 372.317002 158.403792
L 373.913237 157.784259
L 375.509472 157.975999
L 377.105707 155.819705
L 378.701942 153.415631
L 380.298177 152.94283
L 381.894412 153.598972
L 383.490647 152.39053
L 385.086882 152.523511
L 386.683118 151.212018
L 388.279353 150.32539
L 389.875588 146.910542
L 391.471823 148.197997
L 393.068058 145.663594
L 394.664293 143.278659
L 396.260528 144.17232
L 397.856763 143.108389
L 399.452998 140.134431
L 401.049233 141.154941
L 402.645468 141.230151
L 404.241703 140.670231
L 405.837938 138.519063
L 407.434174 138.04694
L 409.030409 134.732328
L 410.626644 133.360215
L 412.222879 134.650759
L 413.819114 131.480805
L 415.415349 130.316246
L 417.011584 127.033481
L 418.607819 128.319139
L 420.204054 127.002904
L 421.800289 123.85318
L 423.396524 122.232641
L 424.992759 123.080955
L 426.588994 122.077682
L 428.18523 120.875549
L 429.781465 120.16855
L 431.3777 117.494253
L 432.973935 117.171239
L 434.57017 114.275002
L 436.166405 110.750403
L 437.76264 110.779662
L 439.358875 108.915952
L 440.95511 106.157867
L 442.551345 105.656913
L 444.14758 105.483141
L 445.743815 101.572262
L 447.340051 105.360061
L 448.936286 101.494226
L 450.532521 100.694731
L 452.128756 97.363859
L 453.724991 95.358404
L 455.321226 94.980154
L 456.917461 92.517905
L 458.513696 89.75875
L 460.109931 90.18072
L 461.706166 87.920938
L 463.302401 85.504872
L 464.898636 83.799993
" clip-path="url(#p0e2a1d0aef)" style="fill: none; stroke: #1f77b4; stroke-width: 1.5; stroke-linecap: square"/>
   </g>
   <g id="patch_8">
    <path d="M 298.97 318.04
L 298.97 37.968
" style="fill: none; stroke: #000000; stroke-width: 0.8; stroke-linejoin: miter; stroke-linecap: square"/>
   </g>
   <g id="patch_9">
    <path d="M 472.8 318.04
L 472.8 37.968
" style="fill: none; stroke: #000000; stroke-width: 0.8; stroke-linejoin: miter; stroke-linecap: square"/>
   </g>
   <g id="patch_10">
    <path d="M 298.97 318.04
L 472.8 318.04
" style="fill: none; stroke: #000000; stroke-width: 0.8; stroke-linejoin: miter; stroke-linecap: square"/>
   </g>
   <g id="patch_11">
    <path d="M 298.97 37.968
L 472.8 37.968
" style="fill: none; stroke: #000000; stroke-width: 0.8; stroke-linejoin: miter; stroke-linecap: square"/>
   </g>
   <g id="text_32">
    <!-- Much heterogeneity in age -->
    <g transform="translate(305.329375 18.530625) scale(0.12 -0.12)">
     <defs>
      <path id="DejaVuSans-4d" d="M 628 4666
L 1569 4666
L 2759 1491
L 3956 4666
L 4897 4666
L 4897 0
L 4281 0
L 4281 4097
L 3078 897
L 2444 897
L 1241 4097
L 1241 0
L 628 0
L 628 4666
z
" transform="scale(0.015625)"/>
      <path id="DejaVuSans-75" d="M 544 1381
L 544 3500
L 1119 3500
L 1119 1403
Q 1119 906 1312 657
Q 1506 409 1894 409
Q 2359 409 2629 706
Q 2900 1003 2900 1516
L 2900 3500
L 3475 3500
L 3475 0
L 2900 0
L 2900 538
Q 2691 219 2414 64
Q 2138 -91 1772 -91
Q 1169 -91 856 284
Q 544 659 544 1381
z
M 1991 3584
L 1991 3584
z
" transform="scale(0.015625)"/>
      <path id="DejaVuSans-63" d="M 3122 3366
L 3122 2828
Q 2878 2963 2633 3030
Q 2388 3097 2138 3097
Q 1578 3097 1268 2742
Q 959 2388 959 1747
Q 959 1106 1268 751
Q 1578 397 2138 397
Q 2388 397 2633 464
Q 2878 531 3122 666
L 3122 134
Q 2881 22 2623 -34
Q 2366 -91 2075 -91
Q 1284 -91 818 406
Q 353 903 353 1747
Q 353 2603 823 3093
Q 1294 3584 2113 3584
Q 2378 3584 2631 3529
Q 2884 3475 3122 3366
z
" transform="scale(0.015625)"/>
     </defs>
     <use xlink:href="#DejaVuSans-4d"/>
     <use xlink:href="#DejaVuSans-75" x="86.279297"/>
     <use xlink:href="#DejaVuSans-63" x="149.658203"/>
     <use xlink:href="#DejaVuSans-68" x="204.638672"/>
     <use xlink:href="#DejaVuSans-20" x="268.017578"/>
     <use xlink:href="#DejaVuSans-68" x="299.804688"/>
     <use xlink:href="#DejaVuSans-65" x="363.183594"/>
     <use xlink:href="#DejaVuSans-74" x="424.707031"/>
     <use xlink:href="#DejaVuSans-65" x="463.916016"/>
     <use xlink:href="#DejaVuSans-72" x="525.439453"/>
     <use xlink:href="#DejaVuSans-6f" x="564.302734"/>
     <use xlink:href="#DejaVuSans-67" x="625.484375"/>
     <use xlink:href="#DejaVuSans-65" x="688.960938"/>
     <use xlink:href="#DejaVuSans-6e" x="750.484375"/>
     <use xlink:href="#DejaVuSans-65" x="813.863281"/>
     <use xlink:href="#DejaVuSans-69" x="875.386719"/>
     <use xlink:href="#DejaVuSans-74" x="903.169922"/>
     <use xlink:href="#DejaVuSans-79" x="942.378906"/>
     <use xlink:href="#DejaVuSans-20" x="1001.558594"/>
     <use xlink:href="#DejaVuSans-69" x="1033.345703"/>
     <use xlink:href="#DejaVuSans-6e" x="1061.128906"/>
     <use xlink:href="#DejaVuSans-20" x="1124.507812"/>
     <use xlink:href="#DejaVuSans-61" x="1156.294922"/>
     <use xlink:href="#DejaVuSans-67" x="1217.574219"/>
     <use xlink:href="#DejaVuSans-65" x="1281.050781"/>
    </g>
    <!--  but irrelevant -->
    <g transform="translate(343.314062 31.968) scale(0.12 -0.12)">
     <defs>
      <path id="DejaVuSans-62" d="M 3116 1747
Q 3116 2381 2855 2742
Q 2594 3103 2138 3103
Q 1681 3103 1420 2742
Q 1159 2381 1159 1747
Q 1159 1113 1420 752
Q 1681 391 2138 391
Q 2594 391 2855 752
Q 3116 1113 3116 1747
z
M 1159 2969
Q 1341 3281 1617 3432
Q 1894 3584 2278 3584
Q 2916 3584 3314 3078
Q 3713 2572 3713 1747
Q 3713 922 3314 415
Q 2916 -91 2278 -91
Q 1894 -91 1617 61
Q 1341 213 1159 525
L 1159 0
L 581 0
L 581 4863
L 1159 4863
L 1159 2969
z
" transform="scale(0.015625)"/>
      <path id="DejaVuSans-76" d="M 191 3500
L 800 3500
L 1894 563
L 2988 3500
L 3597 3500
L 2284 0
L 1503 0
L 191 3500
z
" transform="scale(0.015625)"/>
     </defs>
     <use xlink:href="#DejaVuSans-20"/>
     <use xlink:href="#DejaVuSans-62" x="31.787109"/>
     <use xlink:href="#DejaVuSans-75" x="95.263672"/>
     <use xlink:href="#DejaVuSans-74" x="158.642578"/>
     <use xlink:href="#DejaVuSans-20" x="197.851562"/>
     <use xlink:href="#DejaVuSans-69" x="229.638672"/>
     <use xlink:href="#DejaVuSans-72" x="257.421875"/>
     <use xlink:href="#DejaVuSans-72" x="296.785156"/>
     <use xlink:href="#DejaVuSans-65" x="335.648438"/>
     <use xlink:href="#DejaVuSans-6c" x="397.171875"/>
     <use xlink:href="#DejaVuSans-65" x="424.955078"/>
     <use xlink:href="#DejaVuSans-76" x="486.478516"/>
     <use xlink:href="#DejaVuSans-61" x="545.658203"/>
     <use xlink:href="#DejaVuSans-6e" x="606.9375"/>
     <use xlink:href="#DejaVuSans-74" x="670.316406"/>
    </g>
   </g>
  </g>
  <g id="axes_3">
   <g id="patch_12">
    <path d="M 535.37 318.04
L 709.2 318.04
L 709.2 37.968
L 535.37 37.968
z
" style="fill: #ffffff"/>
   </g>
   <g id="matplotlib.axis_5">
    <g id="xtick_9">
     <g id="line2d_31">
      <g>
       <use xlink:href="#mb33362085e" x="566.975455" y="318.04" style="stroke: #000000; stroke-width: 0.8"/>
      </g>
     </g>
     <g id="text_33">
      <!-- 20 -->
      <g transform="translate(560.612955 332.638438) scale(0.1 -0.1)">
       <use xlink:href="#DejaVuSans-32"/>
       <use xlink:href="#DejaVuSans-30" x="63.623047"/>
      </g>
     </g>
    </g>
    <g id="xtick_10">
     <g id="line2d_32">
      <g>
       <use xlink:href="#mb33362085e" x="606.482273" y="318.04" style="stroke: #000000; stroke-width: 0.8"/>
      </g>
     </g>
     <g id="text_34">
      <!-- 40 -->
      <g transform="translate(600.119773 332.638438) scale(0.1 -0.1)">
       <use xlink:href="#DejaVuSans-34"/>
       <use xlink:href="#DejaVuSans-30" x="63.623047"/>
      </g>
     </g>
    </g>
    <g id="xtick_11">
     <g id="line2d_33">
      <g>
       <use xlink:href="#mb33362085e" x="645.989091" y="318.04" style="stroke: #000000; stroke-width: 0.8"/>
      </g>
     </g>
     <g id="text_35">
      <!-- 60 -->
      <g transform="translate(639.626591 332.638438) scale(0.1 -0.1)">
       <use xlink:href="#DejaVuSans-36"/>
       <use xlink:href="#DejaVuSans-30" x="63.623047"/>
      </g>
     </g>
    </g>
    <g id="xtick_12">
     <g id="line2d_34">
      <g>
       <use xlink:href="#mb33362085e" x="685.495909" y="318.04" style="stroke: #000000; stroke-width: 0.8"/>
      </g>
     </g>
     <g id="text_36">
      <!-- 80 -->
      <g transform="translate(679.133409 332.638438) scale(0.1 -0.1)">
       <use xlink:href="#DejaVuSans-38"/>
       <use xlink:href="#DejaVuSans-30" x="63.623047"/>
      </g>
     </g>
    </g>
    <g id="text_37">
     <!-- age [years] -->
     <g transform="translate(593.719375 346.316563) scale(0.1 -0.1)">
      <use xlink:href="#DejaVuSans-61"/>
      <use xlink:href="#DejaVuSans-67" x="61.279297"/>
      <use xlink:href="#DejaVuSans-65" x="124.755859"/>
      <use xlink:href="#DejaVuSans-20" x="186.279297"/>
      <use xlink:href="#DejaVuSans-5b" x="218.066406"/>
      <use xlink:href="#DejaVuSans-79" x="257.080078"/>
      <use xlink:href="#DejaVuSans-65" x="316.259766"/>
      <use xlink:href="#DejaVuSans-61" x="377.783203"/>
      <use xlink:href="#DejaVuSans-72" x="439.0625"/>
      <use xlink:href="#DejaVuSans-73" x="480.175781"/>
      <use xlink:href="#DejaVuSans-5d" x="532.275391"/>
     </g>
    </g>
   </g>
   <g id="matplotlib.axis_6">
    <g id="ytick_19">
     <g id="line2d_35">
      <g>
       <use xlink:href="#m4b6bf69999" x="535.37" y="318.04" style="stroke: #000000; stroke-width: 0.8"/>
      </g>
     </g>
     <g id="text_38">
      <!-- −1.00 -->
      <g transform="translate(497.724687 321.839219) scale(0.1 -0.1)">
       <use xlink:href="#DejaVuSans-2212"/>
       <use xlink:href="#DejaVuSans-31" x="83.789062"/>
       <use xlink:href="#DejaVuSans-2e" x="147.412109"/>
       <use xlink:href="#DejaVuSans-30" x="179.199219"/>
       <use xlink:href="#DejaVuSans-30" x="242.822266"/>
      </g>
     </g>
    </g>
    <g id="ytick_20">
     <g id="line2d_36">
      <g>
       <use xlink:href="#m4b6bf69999" x="535.37" y="283.031" style="stroke: #000000; stroke-width: 0.8"/>
      </g>
     </g>
     <g id="text_39">
      <!-- −0.75 -->
      <g transform="translate(497.724687 286.830219) scale(0.1 -0.1)">
       <use xlink:href="#DejaVuSans-2212"/>
       <use xlink:href="#DejaVuSans-30" x="83.789062"/>
       <use xlink:href="#DejaVuSans-2e" x="147.412109"/>
       <use xlink:href="#DejaVuSans-37" x="179.199219"/>
       <use xlink:href="#DejaVuSans-35" x="242.822266"/>
      </g>
     </g>
    </g>
    <g id="ytick_21">
     <g id="line2d_37">
      <g>
       <use xlink:href="#m4b6bf69999" x="535.37" y="248.022" style="stroke: #000000; stroke-width: 0.8"/>
      </g>
     </g>
     <g id="text_40">
      <!-- −0.50 -->
      <g transform="translate(497.724687 251.821219) scale(0.1 -0.1)">
       <use xlink:href="#DejaVuSans-2212"/>
       <use xlink:href="#DejaVuSans-30" x="83.789062"/>
       <use xlink:href="#DejaVuSans-2e" x="147.412109"/>
       <use xlink:href="#DejaVuSans-35" x="179.199219"/>
       <use xlink:href="#DejaVuSans-30" x="242.822266"/>
      </g>
     </g>
    </g>
    <g id="ytick_22">
     <g id="line2d_38">
      <g>
       <use xlink:href="#m4b6bf69999" x="535.37" y="213.013" style="stroke: #000000; stroke-width: 0.8"/>
      </g>
     </g>
     <g id="text_41">
      <!-- −0.25 -->
      <g transform="translate(497.724687 216.812219) scale(0.1 -0.1)">
       <use xlink:href="#DejaVuSans-2212"/>
       <use xlink:href="#DejaVuSans-30" x="83.789062"/>
       <use xlink:href="#DejaVuSans-2e" x="147.412109"/>
       <use xlink:href="#DejaVuSans-32" x="179.199219"/>
       <use xlink:href="#DejaVuSans-35" x="242.822266"/>
      </g>
     </g>
    </g>
    <g id="ytick_23">
     <g id="line2d_39">
      <g>
       <use xlink:href="#m4b6bf69999" x="535.37" y="178.004" style="stroke: #000000; stroke-width: 0.8"/>
      </g>
     </g>
     <g id="text_42">
      <!-- 0.00 -->
      <g transform="translate(506.104375 181.803219) scale(0.1 -0.1)">
       <use xlink:href="#DejaVuSans-30"/>
       <use xlink:href="#DejaVuSans-2e" x="63.623047"/>
       <use xlink:href="#DejaVuSans-30" x="95.410156"/>
       <use xlink:href="#DejaVuSans-30" x="159.033203"/>
      </g>
     </g>
    </g>
    <g id="ytick_24">
     <g id="line2d_40">
      <g>
       <use xlink:href="#m4b6bf69999" x="535.37" y="142.995" style="stroke: #000000; stroke-width: 0.8"/>
      </g>
     </g>
     <g id="text_43">
      <!-- 0.25 -->
      <g transform="translate(506.104375 146.794219) scale(0.1 -0.1)">
       <use xlink:href="#DejaVuSans-30"/>
       <use xlink:href="#DejaVuSans-2e" x="63.623047"/>
       <use xlink:href="#DejaVuSans-32" x="95.410156"/>
       <use xlink:href="#DejaVuSans-35" x="159.033203"/>
      </g>
     </g>
    </g>
    <g id="ytick_25">
     <g id="line2d_41">
      <g>
       <use xlink:href="#m4b6bf69999" x="535.37" y="107.986" style="stroke: #000000; stroke-width: 0.8"/>
      </g>
     </g>
     <g id="text_44">
      <!-- 0.50 -->
      <g transform="translate(506.104375 111.785219) scale(0.1 -0.1)">
       <use xlink:href="#DejaVuSans-30"/>
       <use xlink:href="#DejaVuSans-2e" x="63.623047"/>
       <use xlink:href="#DejaVuSans-35" x="95.410156"/>
       <use xlink:href="#DejaVuSans-30" x="159.033203"/>
      </g>
     </g>
    </g>
    <g id="ytick_26">
     <g id="line2d_42">
      <g>
       <use xlink:href="#m4b6bf69999" x="535.37" y="72.977" style="stroke: #000000; stroke-width: 0.8"/>
      </g>
     </g>
     <g id="text_45">
      <!-- 0.75 -->
      <g transform="translate(506.104375 76.776219) scale(0.1 -0.1)">
       <use xlink:href="#DejaVuSans-30"/>
       <use xlink:href="#DejaVuSans-2e" x="63.623047"/>
       <use xlink:href="#DejaVuSans-37" x="95.410156"/>
       <use xlink:href="#DejaVuSans-35" x="159.033203"/>
      </g>
     </g>
    </g>
    <g id="ytick_27">
     <g id="line2d_43">
      <g>
       <use xlink:href="#m4b6bf69999" x="535.37" y="37.968" style="stroke: #000000; stroke-width: 0.8"/>
      </g>
     </g>
     <g id="text_46">
      <!-- 1.00 -->
      <g transform="translate(506.104375 41.767219) scale(0.1 -0.1)">
       <use xlink:href="#DejaVuSans-31"/>
       <use xlink:href="#DejaVuSans-2e" x="63.623047"/>
       <use xlink:href="#DejaVuSans-30" x="95.410156"/>
       <use xlink:href="#DejaVuSans-30" x="159.033203"/>
      </g>
     </g>
    </g>
    <g id="text_47">
     <!-- CATE -->
     <g transform="translate(491.645 190.7415) rotate(-90) scale(0.1 -0.1)">
      <use xlink:href="#DejaVuSans-43"/>
      <use xlink:href="#DejaVuSans-41" x="69.824219"/>
      <use xlink:href="#DejaVuSans-54" x="130.482422"/>
      <use xlink:href="#DejaVuSans-45" x="191.566406"/>
     </g>
    </g>
   </g>
   <g id="line2d_44">
    <path d="M 535.37 178.004
L 709.2 178.004
" clip-path="url(#p8c7f725b09)" style="fill: none; stroke: #ffa500; stroke-width: 1.5; stroke-linecap: square"/>
   </g>
   <g id="line2d_45">
    <path d="M 543.271364 234.294635
L 544.867599 236.689255
L 546.463834 237.101202
L 548.060069 235.720337
L 549.656304 235.181705
L 551.252539 231.447332
L 552.848774 234.02436
L 554.445009 235.437184
L 556.041244 231.892573
L 557.637479 232.135669
L 559.233714 233.737096
L 560.829949 232.804559
L 562.426185 227.726269
L 564.02242 232.028718
L 565.618655 231.408093
L 567.21489 226.866506
L 568.811125 228.453658
L 570.40736 226.336118
L 572.003595 226.450194
L 573.59983 225.651
L 575.196065 225.215211
L 576.7923 225.386937
L 578.388535 227.260798
L 579.98477 223.304296
L 581.581006 222.896648
L 583.177241 222.319382
L 584.773476 218.648735
L 586.369711 218.719636
L 587.965946 218.085063
L 589.562181 217.94136
L 591.158416 216.890602
L 592.754651 215.972832
L 594.350886 212.574258
L 595.947121 212.816598
L 597.543356 209.874856
L 599.139591 211.452448
L 600.735826 212.046951
L 602.332062 206.185586
L 603.928297 203.484999
L 605.524532 204.83532
L 607.120767 203.992841
L 608.717002 202.324876
L 610.313237 200.702541
L 611.909472 201.377159
L 613.505707 201.543498
L 615.101942 197.22807
L 616.698177 197.763441
L 618.294412 196.492918
L 619.890647 193.371626
L 621.486882 192.422035
L 623.083118 190.324115
L 624.679353 188.392597
L 626.275588 188.567982
L 627.871823 185.809916
L 629.468058 183.480832
L 631.064293 183.204992
L 632.660528 180.624884
L 634.256763 182.155299
L 635.852998 175.071797
L 637.449233 175.489671
L 639.045468 173.300924
L 640.641703 172.334338
L 642.237938 167.64204
L 643.834174 168.639979
L 645.430409 166.029488
L 647.026644 165.221258
L 648.622879 163.005525
L 650.219114 159.931411
L 651.815349 157.14447
L 653.411584 156.562731
L 655.007819 155.283007
L 656.604054 153.017166
L 658.200289 150.661575
L 659.796524 146.644992
L 661.392759 148.546707
L 662.988994 143.345296
L 664.58523 143.720859
L 666.181465 138.187959
L 667.7777 138.139945
L 669.373935 135.443062
L 670.97017 132.464548
L 672.566405 131.430509
L 674.16264 126.444327
L 675.758875 124.301527
L 677.35511 121.614785
L 678.951345 121.079456
L 680.54758 119.491007
L 682.143815 114.425697
L 683.740051 116.406771
L 685.336286 108.687815
L 686.932521 108.416255
L 688.528756 107.019386
L 690.124991 103.657452
L 691.721226 102.755082
L 693.317461 99.48966
L 694.913696 96.256222
L 696.509931 92.757281
L 698.106166 90.429265
L 699.702401 84.832384
L 701.298636 85.242076
" clip-path="url(#p8c7f725b09)" style="fill: none; stroke: #1f77b4; stroke-width: 1.5; stroke-linecap: square"/>
   </g>
   <g id="patch_13">
    <path d="M 535.37 318.04
L 535.37 37.968
" style="fill: none; stroke: #000000; stroke-width: 0.8; stroke-linejoin: miter; stroke-linecap: square"/>
   </g>
   <g id="patch_14">
    <path d="M 709.2 318.04
L 709.2 37.968
" style="fill: none; stroke: #000000; stroke-width: 0.8; stroke-linejoin: miter; stroke-linecap: square"/>
   </g>
   <g id="patch_15">
    <path d="M 535.37 318.04
L 709.2 318.04
" style="fill: none; stroke: #000000; stroke-width: 0.8; stroke-linejoin: miter; stroke-linecap: square"/>
   </g>
   <g id="patch_16">
    <path d="M 535.37 37.968
L 709.2 37.968
" style="fill: none; stroke: #000000; stroke-width: 0.8; stroke-linejoin: miter; stroke-linecap: square"/>
   </g>
   <g id="text_48">
    <!-- Much heterogeneity in age -->
    <g transform="translate(541.729375 18.530625) scale(0.12 -0.12)">
     <use xlink:href="#DejaVuSans-4d"/>
     <use xlink:href="#DejaVuSans-75" x="86.279297"/>
     <use xlink:href="#DejaVuSans-63" x="149.658203"/>
     <use xlink:href="#DejaVuSans-68" x="204.638672"/>
     <use xlink:href="#DejaVuSans-20" x="268.017578"/>
     <use xlink:href="#DejaVuSans-68" x="299.804688"/>
     <use xlink:href="#DejaVuSans-65" x="363.183594"/>
     <use xlink:href="#DejaVuSans-74" x="424.707031"/>
     <use xlink:href="#DejaVuSans-65" x="463.916016"/>
     <use xlink:href="#DejaVuSans-72" x="525.439453"/>
     <use xlink:href="#DejaVuSans-6f" x="564.302734"/>
     <use xlink:href="#DejaVuSans-67" x="625.484375"/>
     <use xlink:href="#DejaVuSans-65" x="688.960938"/>
     <use xlink:href="#DejaVuSans-6e" x="750.484375"/>
     <use xlink:href="#DejaVuSans-65" x="813.863281"/>
     <use xlink:href="#DejaVuSans-69" x="875.386719"/>
     <use xlink:href="#DejaVuSans-74" x="903.169922"/>
     <use xlink:href="#DejaVuSans-79" x="942.378906"/>
     <use xlink:href="#DejaVuSans-20" x="1001.558594"/>
     <use xlink:href="#DejaVuSans-69" x="1033.345703"/>
     <use xlink:href="#DejaVuSans-6e" x="1061.128906"/>
     <use xlink:href="#DejaVuSans-20" x="1124.507812"/>
     <use xlink:href="#DejaVuSans-61" x="1156.294922"/>
     <use xlink:href="#DejaVuSans-67" x="1217.574219"/>
     <use xlink:href="#DejaVuSans-65" x="1281.050781"/>
    </g>
    <!--  and relevant -->
    <g transform="translate(582.417812 31.968) scale(0.12 -0.12)">
     <defs>
      <path id="DejaVuSans-64" d="M 2906 2969
L 2906 4863
L 3481 4863
L 3481 0
L 2906 0
L 2906 525
Q 2725 213 2448 61
Q 2172 -91 1784 -91
Q 1150 -91 751 415
Q 353 922 353 1747
Q 353 2572 751 3078
Q 1150 3584 1784 3584
Q 2172 3584 2448 3432
Q 2725 3281 2906 2969
z
M 947 1747
Q 947 1113 1208 752
Q 1469 391 1925 391
Q 2381 391 2643 752
Q 2906 1113 2906 1747
Q 2906 2381 2643 2742
Q 2381 3103 1925 3103
Q 1469 3103 1208 2742
Q 947 2381 947 1747
z
" transform="scale(0.015625)"/>
     </defs>
     <use xlink:href="#DejaVuSans-20"/>
     <use xlink:href="#DejaVuSans-61" x="31.787109"/>
     <use xlink:href="#DejaVuSans-6e" x="93.066406"/>
     <use xlink:href="#DejaVuSans-64" x="156.445312"/>
     <use xlink:href="#DejaVuSans-20" x="219.921875"/>
     <use xlink:href="#DejaVuSans-72" x="251.708984"/>
     <use xlink:href="#DejaVuSans-65" x="290.572266"/>
     <use xlink:href="#DejaVuSans-6c" x="352.095703"/>
     <use xlink:href="#DejaVuSans-65" x="379.878906"/>
     <use xlink:href="#DejaVuSans-76" x="441.402344"/>
     <use xlink:href="#DejaVuSans-61" x="500.582031"/>
     <use xlink:href="#DejaVuSans-6e" x="561.861328"/>
     <use xlink:href="#DejaVuSans-74" x="625.240234"/>
    </g>
   </g>
  </g>
 </g>
 <defs>
  <clipPath id="p7ac87b9c74">
   <rect x="62.57" y="37.968" width="173.83" height="280.072"/>
  </clipPath>
  <clipPath id="p0e2a1d0aef">
   <rect x="298.97" y="37.968" width="173.83" height="280.072"/>
  </clipPath>
  <clipPath id="p8c7f725b09">
   <rect x="535.37" y="37.968" width="173.83" height="280.072"/>
  </clipPath>
 </defs>
</svg>
